<svg width="9" height="6" viewBox="0 0 9 6" fill="none" xmlns="http://www.w3.org/2000/svg">
<path d="M8.93376 1.51072C8.93376 1.4393 8.89804 1.35894 8.84447 1.30537L8.39804 0.858939C8.34447 0.805367 8.26411 0.769653 8.19268 0.769653C8.12126 0.769653 8.0409 0.805367 7.98733 0.858939L4.4784 4.36787L0.969469 0.858939C0.915898 0.805367 0.835541 0.769653 0.764112 0.769653C0.683755 0.769653 0.612327 0.805367 0.558755 0.858939L0.112327 1.30537C0.0587551 1.35894 0.0230408 1.4393 0.0230408 1.51072C0.0230408 1.58215 0.0587551 1.66251 0.112327 1.71608L4.27304 5.8768C4.32661 5.93037 4.40697 5.96608 4.4784 5.96608C4.54983 5.96608 4.63018 5.93037 4.68376 5.8768L8.84447 1.71608C8.89804 1.66251 8.93376 1.58215 8.93376 1.51072Z" fill="black"/>
</svg>
